<?xml version="1.0" encoding="UTF-8"?>
<svg width="34px" height="34px" viewBox="0 0 34 34" version="1.1" xmlns="http://www.w3.org/2000/svg" xmlns:xlink="http://www.w3.org/1999/xlink">
    <title>XMLID_505_</title>
    <g id="Page-1" stroke="none" stroke-width="1" fill="none" fill-rule="evenodd">
        <g id="Desktop" transform="translate(-867.000000, -3566.000000)" fill="#9B9B9B" fill-rule="nonzero">
            <g id="Footer" transform="translate(0.000000, 3375.000000)">
                <g id="Group" transform="translate(867.000000, 191.000000)">
                    <path d="M4.3656,0 L29.63644,0 C32.0372933,0 34,1.96338667 34,4.36424 L34,29.63508 C34,32.0352533 32.0372933,33.99728 29.63644,33.99728 L4.3656,33.99728 C1.96474667,33.99728 0,32.03514 0,29.63508 L0,4.36424 C0,1.96338667 1.96474667,0 4.3656,0 Z M24.7685467,3.77592667 C23.9255733,3.77592667 23.23798,4.46624 23.23798,5.30876 L23.23798,8.97101333 C23.23798,9.81387333 23.9255733,10.5026 24.7685467,10.5026 L28.6108867,10.5026 C29.4525,10.5026 30.1415667,9.81387333 30.1415667,8.97101333 L30.1415667,5.30876 C30.1415667,4.46624 29.4525,3.77592667 28.6108867,3.77592667 L24.7685467,3.77592667 Z M30.1561867,14.3770133 L27.16464,14.3770133 C27.4483133,15.3035133 27.6021067,16.28056 27.6021067,17.2963667 C27.6021067,22.94966 22.8686267,27.5349 17.03196,27.5349 C11.1967667,27.5349 6.46317333,22.94966 6.46317333,17.2963667 C6.46317333,16.28056 6.61844,15.3035133 6.90075333,14.3770133 L3.77966667,14.3770133 L3.77966667,28.7399733 C3.77966667,29.48378 4.38702,30.0888667 5.13014667,30.0888667 L28.8062733,30.0888667 C29.55008,30.0888667 30.1561867,29.48378 30.1561867,28.7399733 L30.1561867,14.3770133 Z M17.0320733,10.30948 C13.2626067,10.30948 10.2048733,13.2706533 10.2048733,16.9267867 C10.2048733,20.57918 13.2626067,23.54262 17.0320733,23.54262 C20.80358,23.54262 23.8614267,20.57918 23.8614267,16.9267867 C23.8614267,13.27054 20.80358,10.30948 17.0320733,10.30948 Z" id="XMLID_505_"></path>
                </g>
            </g>
        </g>
    </g>
</svg>