<?xml version="1.0" encoding="UTF-8"?>
<svg width="34px" height="28px" viewBox="0 0 34 28" version="1.1" xmlns="http://www.w3.org/2000/svg" xmlns:xlink="http://www.w3.org/1999/xlink">
    <title>path3611</title>
    <g id="Page-1" stroke="none" stroke-width="1" fill="none" fill-rule="evenodd">
        <g id="Desktop" transform="translate(-816.000000, -3558.000000)" fill="#9B9B9B" fill-rule="nonzero">
            <g id="Group" transform="translate(816.000000, 3558.000000)">
                <path d="M10.6927434,27.6320705 C23.5237909,27.6320705 30.5400991,17.0022066 30.5400991,7.78471716 C30.5400991,7.48279265 30.5339494,7.18223043 30.5204065,6.88302707 C31.8824587,5.89837814 33.0663511,4.66960584 34,3.27083129 C32.7501477,3.82639688 31.4050954,4.20040137 29.9940809,4.36904362 C31.4343354,3.50543352 32.5400255,2.13930125 33.0615911,0.510684461 C31.7138176,1.30969229 30.2212031,1.89041902 28.6320275,2.20390123 C27.3590552,0.847967816 25.5468373,-1.24344979e-14 23.5401383,-1.24344979e-14 C19.6879003,-1.24344979e-14 16.5639489,3.12395132 16.5639489,6.97482819 C16.5639489,7.52223265 16.6251489,8.05467938 16.7448312,8.5653627 C10.9470953,8.27364048 5.80624272,5.49785366 2.36609033,1.27705229 C1.7670036,2.30794235 1.42156139,3.50543352 1.42156139,4.78316582 C1.42156139,7.20331043 2.65305255,9.33989168 4.52579043,10.589744 C3.38134039,10.554384 2.3062492,10.2402195 1.36647912,9.71729502 C1.36545228,9.7465624 1.36545228,9.77509615 1.36545228,9.80637615 C1.36545228,13.1846486 3.76995689,16.0053165 6.9619082,16.6445221 C6.37574261,16.8043243 5.75897589,16.8900043 5.12249031,16.8900043 C4.67368584,16.8900043 4.23644136,16.8458317 3.81143802,16.7642043 C4.69952583,19.5359112 7.27471041,21.5528102 10.3279417,21.6092524 C7.94043713,23.4806292 4.93276807,24.5951615 1.66397678,24.5951615 C1.10161005,24.5951615 0.546045595,24.5631741 0,24.4985992 C3.08723132,26.4774205 6.7531471,27.6320705 10.693104,27.6320705" id="path3611"></path>
            </g>
        </g>
    </g>
</svg>